<?xml version="1.0" encoding="UTF-8"?>
<svg version="1.1" xmlns="http://www.w3.org/2000/svg" width="13" height="13">
<path d="M0 0 C1.9375 1.0625 1.9375 1.0625 3 3 C3.36528977 6.4093712 3.6140629 8.88023824 1.9375 11.9375 C-1.11976176 13.6140629 -3.5906288 13.36528977 -7 13 C-8.9375 11.9375 -8.9375 11.9375 -10 10 C-10.36528977 6.5906288 -10.6140629 4.11976176 -8.9375 1.0625 C-5.88023824 -0.6140629 -3.4093712 -0.36528977 0 0 Z M-8 4 C-8.33333333 6.5 -8.33333333 6.5 -8 9 C-6.17296773 11.2491908 -6.17296773 11.2491908 -3.5 11.25 C-0.82703227 11.2491908 -0.82703227 11.2491908 1 9 C1.33333333 6.5 1.33333333 6.5 1 4 C-0.82703227 1.7508092 -0.82703227 1.7508092 -3.5 1.75 C-6.17296773 1.7508092 -6.17296773 1.7508092 -8 4 Z " fill="#FFFFFF" transform="translate(10,0)"/>
</svg>
