<?xml version="1.0" encoding="UTF-8"?>
<svg version="1.1" xmlns="http://www.w3.org/2000/svg" width="19" height="19">
<path d="M0 0 C3.21524305 1.40844718 5.32183868 3.10344786 7.75 5.625 C8.67039062 6.57246094 8.67039062 6.57246094 9.609375 7.5390625 C10.06828125 8.02117188 10.5271875 8.50328125 11 9 C10.06409496 10.1055189 9.12620142 11.20935453 8.1875 12.3125 C7.40439453 13.23482422 7.40439453 13.23482422 6.60546875 14.17578125 C5.12827531 15.85424679 3.59960869 17.43882034 2 19 C-1.98882376 17.46583702 -5.64783382 14.5752926 -8 11 C-7.79816255 7.38134286 -5.98920575 5.6625218 -3.4375 3.25 C-2.79683594 2.63640625 -2.15617188 2.0228125 -1.49609375 1.390625 C-1.00238281 0.93171875 -0.50867188 0.4728125 0 0 Z M1 3 C-0.98 5.31 -2.96 7.62 -5 10 C-3.35 11.65 -1.7 13.3 0 15 C2.88437779 13.70700306 4.87219421 12.34058637 7 10 C5.60667426 6.63279613 4.0210714 5.0140476 1 3 Z " fill="#FFFFFF" transform="translate(8,0)"/>
</svg>
